# xmcd CD database file
#
# Track frame offsets:
#	150
#	7056
#	23605
#	45228
#	65189
#	84439
#	94346
#	116381
#	135151
#	155595
#	174051
#	197650
#
# Disc length: 3029 seconds
#
# Revision: 0
# Processed by: cddbd v1.5.1PL0 Copyright (c) Steve Scherf et al.
# Submitted via: CDex 1.51
#
DISCID=8a0bd30c
DTITLE=Kozi - カタルシス
DYEAR=2004
DGENRE=Hard Rock
TTITLE0=KINEMA
TTITLE1=GROTTESCA
TTITLE2=INCOHERENTS
TTITLE3=NOCTURNE
TTITLE4=DANS EREBOS
TTITLE5=カタルシス
TTITLE6=Promenade
TTITLE7=LIFE GOES ON 〜WITH MELANCHOLY
TTITLE8=CRIMSON STAR
TTITLE9=CRUEL ARCADIA
TTITLE10=INNERMOST...
TTITLE11=KHAOS
EXTD=YEAR: 2004
EXTT0=
EXTT1=
EXTT2=
EXTT3=
EXTT4=
EXTT5=
EXTT6=
EXTT7=
EXTT8=
EXTT9=
EXTT10=
EXTT11=
PLAYORDER=
